<svg width="145" height="144" viewBox="0 0 145 144" fill="none" xmlns="http://www.w3.org/2000/svg">
<path d="M72.041 11.166C38.498 11.166 11.208 38.456 11.208 72C11.208 105.545 38.498 132.834 72.041 132.834C105.585 132.834 132.876 105.545 132.876 72C132.875 38.456 105.584 11.166 72.041 11.166ZM72.041 126.834C41.806 126.834 17.208 102.236 17.208 72C17.208 41.765 41.806 17.166 72.041 17.166C102.276 17.166 126.876 41.765 126.876 72C126.875 102.236 102.276 126.834 72.041 126.834Z" fill="white"/>
<path d="M90.792 36.304H77.596C77.566 36.3038 77.5359 36.3051 77.506 36.308C64.183 36.35 62.443 45.653 62.436 53.784C62.4176 53.8609 62.4082 53.9398 62.408 54.019V59.727H53.29C53.0248 59.727 52.7705 59.8323 52.5829 60.0199C52.3954 60.2074 52.29 60.4618 52.29 60.727V74.804C52.29 75.0692 52.3954 75.3235 52.5829 75.5111C52.7705 75.6986 53.0248 75.804 53.29 75.804H62.408V106.695C62.408 106.96 62.5134 107.215 62.7009 107.402C62.8885 107.59 63.1428 107.695 63.408 107.695H76.715C76.9803 107.695 77.2346 107.59 77.4221 107.402C77.6097 107.215 77.715 106.96 77.715 106.695V75.805H90.791C91.0563 75.805 91.3106 75.6996 91.4981 75.5121C91.6857 75.3245 91.791 75.0702 91.791 74.805V60.728C91.791 60.4628 91.6857 60.2084 91.4981 60.0209C91.3106 59.8333 91.0563 59.728 90.791 59.728H76.715V52.161H90.791C91.0563 52.161 91.3106 52.0556 91.4981 51.8681C91.6857 51.6805 91.791 51.4262 91.791 51.161V37.304C91.7912 37.1727 91.7654 37.0427 91.7153 36.9214C91.6651 36.8 91.5916 36.6898 91.4988 36.5969C91.406 36.5041 91.2958 36.4304 91.1746 36.3801C91.0533 36.3298 90.9233 36.304 90.792 36.304Z" fill="white"/>
</svg>
