<svg width="145" height="144" viewBox="0 0 145 144" fill="none" xmlns="http://www.w3.org/2000/svg">
<path d="M72.041 11.166C38.498 11.166 11.208 38.456 11.208 72C11.208 105.545 38.498 132.834 72.041 132.834C105.585 132.834 132.876 105.545 132.876 72C132.875 38.456 105.584 11.166 72.041 11.166ZM72.041 126.834C41.806 126.834 17.208 102.236 17.208 72C17.208 41.765 41.806 17.166 72.041 17.166C102.276 17.166 126.876 41.765 126.876 72C126.875 102.236 102.276 126.834 72.041 126.834Z" fill="white"/>
<path d="M88.1538 37H55.8462C45.4538 37 37 45.4538 37 55.8462V88.1538C37 98.5462 45.4538 107 55.8462 107H88.1538C98.5462 107 107 98.5462 107 88.1538V55.8462C107 45.4538 98.5462 37 88.1538 37ZM101.615 88.1538C101.615 95.5765 95.5765 101.615 88.1538 101.615H55.8462C48.4235 101.615 42.3846 95.5765 42.3846 88.1538V55.8462C42.3846 48.4235 48.4235 42.3846 55.8462 42.3846H88.1538C95.5765 42.3846 101.615 48.4235 101.615 55.8462V88.1538ZM72 55.8462C63.0912 55.8462 55.8462 63.0912 55.8462 72C55.8462 80.9088 63.0912 88.1538 72 88.1538C80.9088 88.1538 88.1538 80.9088 88.1538 72C88.1538 63.0912 80.9088 55.8462 72 55.8462ZM72 82.7692C66.0608 82.7692 61.2308 77.9392 61.2308 72C61.2308 66.0608 66.0608 61.2308 72 61.2308C77.9392 61.2308 82.7692 66.0608 82.7692 72C82.7692 77.9392 77.9392 82.7692 72 82.7692ZM93.5385 54.5C93.5383 55.0305 93.4336 55.5558 93.2304 56.0459C93.0273 56.5359 92.7295 56.9812 92.3543 57.3562C91.979 57.7312 91.5336 58.0286 91.0434 58.2315C90.5532 58.4343 90.0278 58.5386 89.4973 58.5385C88.9668 58.5383 88.4415 58.4336 87.9514 58.2304C87.4614 58.0273 87.0161 57.7295 86.6411 57.3543C86.2661 56.979 85.9687 56.5336 85.7658 56.0434C85.563 55.5532 85.4587 55.0278 85.4588 54.4973C85.4592 53.4259 85.8852 52.3985 86.643 51.6411C87.4009 50.8838 88.4286 50.4585 89.5 50.4588C90.5714 50.4592 91.5988 50.8852 92.3562 51.643C93.1135 52.4009 93.5388 53.4286 93.5385 54.5Z" fill="white"/>
</svg>
