<svg width="145" height="144" viewBox="0 0 145 144" fill="none" xmlns="http://www.w3.org/2000/svg">
<path d="M72.041 11.166C38.498 11.166 11.208 38.456 11.208 72C11.208 105.545 38.498 132.834 72.041 132.834C105.585 132.834 132.876 105.545 132.876 72C132.875 38.456 105.584 11.166 72.041 11.166ZM72.041 126.834C41.806 126.834 17.208 102.236 17.208 72C17.208 41.765 41.806 17.166 72.041 17.166C102.276 17.166 126.876 41.765 126.876 72C126.875 102.236 102.276 126.834 72.041 126.834Z" fill="white"/>
<path d="M99.208 52.18C100.606 51.458 103.954 49.313 105.532 44.709C105.532 44.709 101.729 47.459 96.553 47.783L96.459 47.835C95.1026 46.3507 93.4515 45.1658 91.6111 44.356C89.7708 43.5462 87.7817 43.1293 85.771 43.132C77.763 43.132 71.272 49.624 71.272 57.632C71.272 58.847 71.423 60.027 71.706 61.155L71.636 61.05C71.636 61.05 56.106 61.94 41.465 45.923C41.465 45.923 34.992 56.924 46.075 65.337C43.648 65.741 39.362 63.557 39.362 63.557C39.362 63.557 39.604 75.123 51.09 77.955C49.23 78.441 45.751 78.601 44.619 78.117C44.619 78.117 46.317 86.933 58.047 88.471C55.054 90.17 49.473 95.346 36.853 94.375C36.853 94.375 45.915 101.816 62.74 100.766C79.565 99.716 91.78 88.389 96.714 76.418C101.648 64.447 100.275 57.631 100.275 57.631C100.275 57.631 104.398 55.467 107.232 50.291C105.923 50.683 101.068 51.869 99.261 52.308C99.2428 52.2656 99.2251 52.2229 99.208 52.18Z" fill="white"/>
</svg>
